<?xml version="1.0" standalone="no"?>
<!DOCTYPE svg PUBLIC "-//W3C//DTD SVG 20010904//EN"
 "http://www.w3.org/TR/2001/REC-SVG-20010904/DTD/svg10.dtd">
<svg version="1.0" xmlns="http://www.w3.org/2000/svg"
 width="400.000000pt" height="400.000000pt" viewBox="0 0 477.000000 477.000000"
 preserveAspectRatio="xMidYMid meet">
<g transform="translate(0.000000,477.000000) scale(0.10000,-0.10000)"
fill="#7d0605">
<path d="M2040 4759 c-36 -4 -108 -17 -160 -29 -52 -12 -106 -24 -120 -27 -14
-2 -34 -8 -45 -13 -11 -4 -54 -19 -95 -33 -115 -38 -175 -61 -178 -69 -2 -5
-10 -8 -18 -8 -8 0 -22 -4 -32 -9 -9 -5 -39 -20 -67 -32 -27 -13 -76 -41 -109
-61 -32 -21 -63 -38 -67 -38 -11 0 -92 -55 -180 -122 -42 -32 -78 -58 -81 -58
-22 0 -378 -354 -378 -376 0 -4 -26 -41 -58 -83 -32 -42 -69 -94 -82 -116 -13
-22 -26 -42 -29 -45 -4 -3 -15 -23 -26 -44 -11 -22 -25 -44 -30 -50 -19 -21
-97 -188 -135 -291 -12 -33 -30 -82 -41 -109 -10 -27 -19 -57 -19 -67 0 -10
-4 -20 -9 -23 -5 -3 -11 -20 -14 -38 -3 -18 -10 -53 -16 -78 -43 -176 -50
-259 -50 -560 0 -254 5 -328 29 -450 6 -30 14 -74 17 -98 3 -23 9 -42 14 -42
5 0 9 -11 9 -25 0 -13 4 -34 9 -47 5 -13 19 -54 31 -93 22 -73 72 -197 102
-253 10 -18 18 -39 18 -46 0 -8 3 -16 8 -18 4 -1 18 -25 32 -53 37 -76 164
-275 206 -325 12 -14 48 -56 80 -95 32 -38 62 -71 66 -73 4 -2 8 -10 8 -17 0
-7 4 -15 9 -17 5 -1 51 -42 102 -89 107 -98 181 -160 254 -209 28 -19 52 -37
53 -42 2 -4 7 -8 12 -8 4 0 50 -25 101 -56 95 -57 292 -156 339 -169 14 -4 39
-13 55 -20 64 -28 248 -82 325 -95 25 -4 72 -14 105 -21 84 -19 691 -19 790
-1 39 7 91 16 118 19 26 3 47 9 47 12 0 4 28 13 63 20 34 7 72 17 83 23 12 5
33 11 48 11 14 1 26 4 26 7 0 4 17 12 38 19 45 15 115 44 199 83 34 15 67 28
72 28 6 0 11 5 11 10 0 6 9 10 19 10 11 0 21 3 23 8 2 4 23 18 48 31 73 39
248 158 329 224 147 119 349 335 441 472 19 28 36 52 40 55 3 3 19 28 35 55
16 28 38 64 48 80 9 17 20 38 23 48 4 9 10 17 15 17 5 0 9 6 9 13 0 6 18 48
40 91 22 43 40 83 40 88 0 4 9 30 21 56 43 97 79 201 79 230 0 11 4 23 9 26 5
3 11 20 14 38 3 18 11 58 17 88 6 30 16 80 22 110 15 75 22 693 8 745 -5 22
-11 55 -12 73 -1 19 -6 36 -10 38 -4 3 -8 19 -8 36 0 18 -4 45 -10 62 -5 17
-24 78 -41 136 -17 58 -36 119 -44 135 -7 17 -16 41 -20 55 -4 14 -30 71 -56
127 -27 56 -49 104 -49 106 0 3 -16 29 -35 59 -19 29 -38 62 -41 73 -4 11 -10
22 -14 25 -3 3 -30 40 -59 84 -29 43 -59 86 -67 95 -7 9 -27 34 -44 55 -17 21
-56 67 -88 102 -31 34 -62 69 -68 76 -17 20 -165 152 -182 162 -13 8 -47 35
-86 71 -11 11 -111 77 -206 137 -61 38 -291 152 -330 163 -14 4 -29 11 -35 15
-5 4 -48 20 -95 35 -47 14 -95 31 -108 36 -13 5 -34 9 -47 9 -14 0 -25 4 -25
9 0 4 -19 11 -42 15 -24 3 -68 10 -98 16 -30 5 -84 14 -120 20 -76 11 -585 11
-680 -1z m1680 -1359 c0 -320 -3 -490 -10 -490 -7 0 -10 167 -10 480 l0 480
-1305 0 -1305 0 0 -480 c0 -313 -3 -480 -10 -480 -7 0 -10 170 -10 490 l0 490
1325 0 1325 0 0 -490z m-70 -35 l0 -455 -40 0 -40 0 0 415 0 415 -1175 0
-1175 0 0 -415 0 -415 -40 0 -40 0 0 455 0 455 1255 0 1255 0 0 -455z m-9
-667 c19 -6 46 -20 61 -31 29 -22 73 -96 82 -143 7 -29 5 -32 -25 -38 -58 -11
-65 -8 -78 36 -30 97 -113 128 -176 65 -44 -44 -58 -99 -53 -216 2 -73 8 -106
24 -136 25 -49 78 -81 118 -71 38 9 85 58 92 95 6 27 11 31 39 31 72 0 79 -16
41 -95 -40 -86 -103 -125 -198 -125 -104 1 -175 58 -215 173 -26 76 -24 233 5
307 50 126 168 188 283 148z m-2870 -9 c43 -15 88 -55 105 -96 32 -74 4 -184
-55 -219 -17 -10 -31 -23 -31 -29 0 -5 20 -63 45 -128 25 -66 45 -123 45 -128
0 -5 -24 -9 -53 -9 l-53 0 -44 125 -45 125 -77 0 -78 0 0 -125 0 -125 -50 0
-50 0 0 310 0 310 154 0 c87 0 168 -5 187 -11z m565 -8 c107 -49 140 -198 62
-287 -48 -54 -79 -66 -195 -72 l-103 -5 0 -118 0 -119 -50 0 -50 0 0 310 0
310 148 0 c122 0 154 -4 188 -19z m419 -176 c32 -107 61 -192 64 -189 3 2 30
89 62 192 l56 187 87 3 86 3 0 -311 0 -310 -55 0 -55 0 -2 268 -3 267 -80
-268 -80 -268 -29 3 -30 3 -80 269 -81 268 -3 -271 -2 -271 -40 0 -40 0 0 310
0 310 83 0 82 0 60 -195z m1065 145 l0 -50 -80 0 -80 0 0 -260 0 -260 -55 0
-55 0 0 260 0 260 -80 0 -80 0 0 50 0 50 215 0 215 0 0 -50z m450 5 l0 -45
-140 0 -140 0 0 -85 0 -85 110 0 110 0 0 -45 0 -45 -110 0 -110 0 0 -90 0 -90
140 0 140 0 0 -45 0 -45 -190 0 -190 0 0 310 0 310 190 0 190 0 0 -45z m710
-85 l0 -130 115 0 115 0 0 130 0 130 50 0 50 0 0 -310 0 -310 -50 0 -50 0 0
135 0 135 -115 0 -115 0 0 -135 0 -135 -50 0 -50 0 0 310 0 310 50 0 50 0 0
-130z m-2890 -1135 l0 -485 1305 0 1305 0 0 485 c0 317 3 485 10 485 7 0 10
-172 10 -495 l0 -495 -1325 0 -1325 0 0 495 c0 323 3 495 10 495 7 0 10 -168
10 -485z m130 65 l0 -420 1175 0 1175 0 0 420 0 420 40 0 40 0 0 -455 0 -455
-1255 0 -1255 0 0 455 0 455 40 0 40 0 0 -420z"/>
<path d="M530 2515 l0 -95 73 0 c99 0 143 14 162 50 23 44 19 78 -14 111 -28
28 -33 29 -125 29 l-96 0 0 -95z"/>
<path d="M1100 2515 l0 -97 91 4 c85 3 92 5 115 31 32 37 32 87 0 123 -21 26
-30 28 -115 32 l-91 4 0 -97z"/>
</g>
</svg>
